# xmcd CD database file
#
# Track frame offsets:
#	150
#	16258
#	39631
#	59027
#	81945
#	98793
#	115638
#	134735
#	144798
#	161339
#	176514
#	189940
#	211967
#	246104
#	261069
#	275004
#	289750
#	306837
#
# Disc length: 4289 seconds
#
# Revision: 0
# Processed by: cddbd v1.5.2PL0 Copyright (c) Steve Scherf et al.
# Submitted via: CDex 1.70beta2
#
DISCID=0010bf12
DTITLE=Liza Minnelli - Cabaret - All That Jazz 2
DYEAR=2010
DGENRE=Jazz
TTITLE0=Liza (With A 'Z') - Ring Them Bells - I Can See Clearly Now - Maybe This Time - Cabaret (Live)
TTITLE1=Exactly Like Me (Live)
TTITLE2=The Circle (Live)
TTITLE3=More Than You Know (Live)
TTITLE4=I'm One Of The Smart Ones (Live)
TTITLE5=Natural Man (Live)
TTITLE6=And I In My Chair (et Mois Dans Mon Coin) (Live)
TTITLE7=There Is A Time (Le Temps) (Live)
TTITLE8=Quiet Thing (Live)
TTITLE9=Son Of A Preacher Man (Live)
TTITLE10=God Bless The Child (Live)
TTITLE11=It Was A Good Time (Live)
TTITLE12=Stepping Out (Live)
TTITLE13=Some People (Live)
TTITLE14=If You Could Read My Mind - Come Back To Me (Live)
TTITLE15=My Mammy (Live)
TTITLE16=Anywhere You Are - I Believe You (Live)
TTITLE17=New York, New York
EXTD=YEAR: 2010
EXTT0=
EXTT1=
EXTT2=
EXTT3=
EXTT4=
EXTT5=
EXTT6=
EXTT7=
EXTT8=
EXTT9=
EXTT10=
EXTT11=
EXTT12=
EXTT13=
EXTT14=
EXTT15=
EXTT16=
EXTT17=
PLAYORDER=
